<svg xmlns="http://www.w3.org/2000/svg" width="28.31" height="28.31" viewBox="0 0 28.31 28.31">
	<style type="text/css">
		.st1{fill:#ffffff;}
		.st0{fill:#0071bb;}
	</style>
	<path class="st0" d="M14.15,0.24C6.48,0.24 0.24,6.48 0.24,14.15C0.24,21.83 6.48,28.07 14.15,28.07C21.83,28.07 28.07,21.83 28.07,14.15C28.07,6.48 21.83,0.24 14.15,0.24M14.15,28.31C6.35,28.31 0,21.96 0,14.15C0,6.35 6.35,0 14.15,0C21.96,0 28.31,6.35 28.31,14.15C28.31,21.96 21.96,28.31 14.15,28.31"/>
	<path class="st0" d="M26.85,14.15C26.85,21.17 21.17,26.85 14.16,26.85C7.15,26.85 1.46,21.17 1.46,14.15C1.46,7.14 7.15,1.46 14.16,1.46C21.17,1.46 26.85,7.14 26.85,14.15"/>
	<path class="st1" d="M16.38,14.28C17.21,13.66 17.76,12.67 17.76,11.55C17.76,9.66 16.23,8.13 14.34,8.13C12.45,8.13 10.91,9.66 10.91,11.55C10.91,12.67 11.46,13.66 12.29,14.28C9.85,15.13 8.09,17.45 8.09,20.18L20.59,20.18C20.59,17.45 18.83,15.13 16.38,14.28"/>
</svg>