<svg xmlns="http://www.w3.org/2000/svg" width="28.32" height="28.31" viewBox="0 0 28.32 28.31">
	<style type="text/css">
		.st1{fill:#ffffff;}
		.st0{fill:#0071bb;}
	</style>
	<path class="st0" d="M14.15,0.24C6.48,0.24 0.24,6.48 0.24,14.16C0.24,21.83 6.48,28.07 14.15,28.07C21.83,28.07 28.07,21.83 28.07,14.16C28.07,6.48 21.83,0.24 14.15,0.24M14.15,28.31C6.35,28.31 0,21.96 0,14.16C0,6.35 6.35,0 14.15,0C21.96,0 28.32,6.35 28.32,14.16C28.32,21.96 21.96,28.31 14.15,28.31"/>
	<path class="st0" d="M26.85,14.16C26.85,21.17 21.16,26.85 14.16,26.85C7.14,26.85 1.46,21.17 1.46,14.16C1.46,7.15 7.14,1.46 14.16,1.46C21.16,1.46 26.85,7.15 26.85,14.16"/>
	<path class="st1" d="M14.15,5.22L16.37,12.05L23.55,12.05L17.74,16.26L19.96,23.09L14.15,18.87L8.35,23.09L10.57,16.26L4.76,12.05L11.94,12.05Z"/>
</svg>