<svg xmlns="http://www.w3.org/2000/svg" width="28.31" height="28.32" viewBox="0 0 28.31 28.32">
	<style type="text/css">
		.st1{fill:#ffffff;}
		.st0{fill:#0071bb;}
	</style>
	<path class="st0" d="M14.15,0.24C6.48,0.24 0.24,6.48 0.24,14.16C0.24,21.83 6.48,28.07 14.15,28.07C21.83,28.07 28.07,21.83 28.07,14.16C28.07,6.48 21.83,0.24 14.15,0.24M14.15,28.31C6.35,28.31 0,21.96 0,14.16C0,6.35 6.35,0 14.15,0C21.96,0 28.31,6.35 28.31,14.16C28.31,21.96 21.96,28.31 14.15,28.31"/>
	<path class="st0" d="M26.85,14.16C26.85,21.17 21.17,26.85 14.16,26.85C7.15,26.85 1.46,21.17 1.46,14.16C1.46,7.14 7.15,1.46 14.16,1.46C21.17,1.46 26.85,7.14 26.85,14.16"/>
	<path class="st1" d="M21.93,18.55C21.96,18.79 21.88,19.01 21.7,19.19L19.56,21.31C19.47,21.42 19.34,21.51 19.19,21.59C19.03,21.66 18.88,21.71 18.73,21.73C18.72,21.73 18.68,21.73 18.63,21.74C18.58,21.74 18.51,21.75 18.42,21.75C18.22,21.75 17.89,21.71 17.43,21.64C16.98,21.57 16.42,21.4 15.76,21.13C15.1,20.85 14.35,20.44 13.51,19.9C12.68,19.35 11.79,18.6 10.84,17.65C10.09,16.91 9.47,16.2 8.98,15.52C8.49,14.85 8.09,14.22 7.79,13.65C7.49,13.07 7.26,12.56 7.11,12.09C6.96,11.62 6.86,11.22 6.81,10.88C6.75,10.55 6.73,10.28 6.74,10.09C6.75,9.89 6.76,9.78 6.76,9.76C6.78,9.61 6.83,9.46 6.9,9.31C6.98,9.15 7.07,9.02 7.18,8.93L9.32,6.79C9.47,6.64 9.64,6.56 9.83,6.56C9.97,6.56 10.09,6.6 10.2,6.68C10.31,6.76 10.4,6.86 10.47,6.98L12.2,10.25C12.29,10.42 12.32,10.61 12.28,10.81C12.23,11.01 12.14,11.19 12,11.32L11.21,12.11C11.19,12.13 11.17,12.17 11.16,12.22C11.14,12.26 11.13,12.31 11.13,12.34C11.18,12.56 11.27,12.82 11.42,13.11C11.55,13.37 11.75,13.68 12.02,14.05C12.29,14.42 12.67,14.85 13.16,15.33C13.64,15.82 14.07,16.2 14.45,16.48C14.82,16.75 15.14,16.95 15.39,17.08C15.64,17.21 15.83,17.29 15.97,17.32L16.17,17.36C16.19,17.36 16.22,17.35 16.27,17.33C16.32,17.32 16.36,17.3 16.38,17.28L17.29,16.34C17.49,16.17 17.71,16.09 17.97,16.09C18.15,16.09 18.3,16.12 18.4,16.18L18.42,16.18L21.52,18.02C21.75,18.15 21.88,18.33 21.93,18.55"/>
</svg>