<svg xmlns="http://www.w3.org/2000/svg" width="28.31" height="28.31" viewBox="0 0 28.31 28.31">
	<style type="text/css">
		.st1{fill:#ffffff;}
		.st0{fill:#0071bb;}
	</style>
	<path class="st0" d="M14.15,0.24C6.48,0.24 0.24,6.48 0.24,14.15C0.24,21.83 6.48,28.07 14.15,28.07C21.83,28.07 28.07,21.83 28.07,14.15C28.07,6.48 21.83,0.24 14.15,0.24M14.15,28.31C6.35,28.31 0,21.96 0,14.15C0,6.35 6.35,0 14.15,0C21.96,0 28.31,6.35 28.31,14.15C28.31,21.96 21.96,28.31 14.15,28.31"/>
	<path class="st0" d="M26.85,14.15C26.85,21.17 21.17,26.85 14.16,26.85C7.15,26.85 1.46,21.17 1.46,14.15C1.46,7.15 7.15,1.46 14.16,1.46C21.17,1.46 26.85,7.15 26.85,14.15"/>
	<path class="st1" d="M20.08,11.76C20.08,8.48 17.43,5.83 14.15,5.83C10.88,5.83 8.23,8.48 8.23,11.76C8.23,13.94 9.42,15.82 11.17,16.85L11.17,17.06C11.17,18.3 12.17,19.3 13.41,19.3L14.9,19.3C16.14,19.3 17.14,18.3 17.14,17.06L17.14,16.85C18.89,15.82 20.08,13.94 20.08,11.76"/>
	<path class="st1" d="M15.97,20.15L12.34,20.15C11.69,20.15 11.17,20.67 11.17,21.32C11.17,21.96 11.69,22.49 12.34,22.49L15.97,22.49C16.62,22.49 17.14,21.96 17.14,21.32C17.14,20.67 16.62,20.15 15.97,20.15"/>
</svg>