<svg xmlns="http://www.w3.org/2000/svg" width="28.32" height="28.31" viewBox="0 0 28.32 28.31">
	<style type="text/css">
		.st1{fill:#ffffff;}
		.st0{fill:#0071bb;}
	</style>
	<path class="st0" d="M14.15,0.24C6.48,0.24 0.24,6.48 0.24,14.15C0.24,21.83 6.48,28.07 14.15,28.07C21.83,28.07 28.07,21.83 28.07,14.15C28.07,6.48 21.83,0.24 14.15,0.24M14.15,28.31C6.35,28.31 0,21.96 0,14.15C0,6.35 6.35,0 14.15,0C21.96,0 28.32,6.35 28.32,14.15C28.32,21.96 21.96,28.31 14.15,28.31"/>
	<path class="st0" d="M26.85,14.16C26.85,21.17 21.16,26.85 14.16,26.85C7.14,26.85 1.46,21.17 1.46,14.16C1.46,7.14 7.14,1.46 14.16,1.46C21.16,1.46 26.85,7.14 26.85,14.16"/>
	<path class="st1" d="M19.05,7.53L9.26,7.53C8.14,7.53 7.23,8.44 7.23,9.56L7.23,14.82C7.23,15.94 8.14,16.85 9.26,16.85L19.05,16.85C20.17,16.85 21.08,15.94 21.08,14.82L21.08,9.56C21.08,8.44 20.17,7.53 19.05,7.53M19.05,8.55C19.61,8.55 20.06,9 20.06,9.56L20.06,14.82C20.06,15.38 19.61,15.83 19.05,15.83L9.26,15.83C8.7,15.83 8.25,15.38 8.25,14.82L8.25,9.56C8.25,9 8.7,8.55 9.26,8.55L19.05,8.55"/>
	<path class="st1" d="M22.59,20.78L5.72,20.78L7.23,18.12L21.08,18.12Z"/>
</svg>