<svg xmlns="http://www.w3.org/2000/svg" width="28.32" height="28.31" viewBox="0 0 28.32 28.31">
	<style type="text/css">
		.st1{fill:#ffffff;}
		.st0{fill:#0071bb;}
	</style>
	<path class="st0" d="M14.15,0.24C6.48,0.24 0.24,6.48 0.24,14.15C0.24,21.83 6.48,28.07 14.15,28.07C21.83,28.07 28.07,21.83 28.07,14.15C28.07,6.48 21.83,0.24 14.15,0.24M14.15,28.31C6.35,28.31 0,21.96 0,14.15C0,6.35 6.35,0 14.15,0C21.96,0 28.32,6.35 28.32,14.15C28.32,21.96 21.96,28.31 14.15,28.31"/>
	<path class="st0" d="M26.85,14.15C26.85,21.16 21.16,26.85 14.16,26.85C7.14,26.85 1.46,21.16 1.46,14.15C1.46,7.14 7.14,1.46 14.16,1.46C21.16,1.46 26.85,7.14 26.85,14.15"/>
	<path class="st1" d="M14.15,8.06C15.64,8.06 16.84,9.21 16.95,10.67L11.36,10.67C11.47,9.21 12.67,8.06 14.15,8.06M18.04,10.67C17.93,8.61 16.24,6.97 14.15,6.97C12.07,6.97 10.38,8.61 10.26,10.67L7,10.67L7,21.34L21.31,21.34L21.31,10.67Z"/>
</svg>